<mxfile host="app.diagrams.net" modified="2023-11-23T22:59:46.667Z" agent="Mozilla/5.0 (Windows NT 10.0; Win64; x64) AppleWebKit/537.36 (KHTML, like Gecko) Chrome/109.0.0.0 Safari/537.36" version="22.1.3" etag="7Kx1KSjc7tibi7hkyygY" type="github">
  <diagram name="Page-1" id="68VbPwVl-lcvhOszPSg0">
    <mxGraphModel>
      <root>
        <mxCell id="0" />
        <mxCell id="1" parent="0" />
      </root>
    </mxGraphModel>
  </diagram>
</mxfile>
